<svg width="24" height="24" viewBox="0 0 24 24" fill="none" xmlns="http://www.w3.org/2000/svg">
<path fill-rule="evenodd" clip-rule="evenodd" d="M6 3C6 3.552 5.553 4 5 4C4.447 4 4 3.552 4 3V1C4 0.448 4.447 0 5 0C5.553 0 6 0.448 6 1V3ZM18 0C17.447 0 17 0.448 17 1V3C17 3.552 17.447 4 18 4C18.553 4 19 3.552 19 3V1C19 0.448 18.553 0 18 0ZM18 17V14H17V18H20V17H18ZM17.5 22C15.019 22 13 19.981 13 17.5C13 15.019 15.019 13 17.5 13C19.981 13 22 15.019 22 17.5C22 19.981 19.981 22 17.5 22ZM24 17.5C24 21.09 21.09 24 17.5 24C13.91 24 11 21.09 11 17.5C11 13.91 13.91 11 17.5 11C21.09 11 24 13.91 24 17.5ZM2 21H9.763C10.093 21.727 10.52 22.399 11.031 23H0V2H3V2.91C3 3.783 3.511 4.626 4.342 4.894C5.722 5.339 7 4.316 7 3V2H16V2.91C16 3.783 16.511 4.626 17.342 4.894C18.722 5.339 20 4.316 20 3V2H23V11.031C22.399 10.52 21.727 10.093 21 9.763V8H2V21Z" fill="#CBD5E1"/>
</svg>
