<!-- Generated by IcoMoon.io -->
<svg version="1.1" xmlns="http://www.w3.org/2000/svg" width="32" height="32" viewBox="0 0 32 32">
<title>calendare</title>
<path fill="#cbd5e1" d="M8 4v-2.667c0-0.736-0.597-1.333-1.333-1.333s-1.333 0.597-1.333 1.333v2.667c0 0.736 0.597 1.333 1.333 1.333s1.333-0.597 1.333-1.333zM24 0c-0.736 0-1.333 0.597-1.333 1.333v0 2.667c0 0.736 0.597 1.333 1.333 1.333s1.333-0.597 1.333-1.333v0-2.667c0-0.736-0.597-1.333-1.333-1.333v0zM24 22.667v-4h-1.333v5.333h4v-1.333h-2.667zM23.333 29.333c-3.312-0.004-5.996-2.688-6-6v-0c0-3.308 2.692-6 6-6s6 2.692 6 6-2.692 6-6 6zM32 23.333c0 4.786-3.88 8.667-8.667 8.667s-8.667-3.88-8.667-8.667v0c0-4.786 3.88-8.667 8.667-8.667s8.667 3.88 8.667 8.667v0zM2.667 28h10.351c0.44 0.969 1.009 1.865 1.691 2.667h-14.708v-28h4v1.213c0 1.164 0.681 2.288 1.789 2.645 0.259 0.092 0.557 0.145 0.868 0.145 1.476 0 2.673-1.195 2.676-2.67v-1.334h12v1.213c0 1.164 0.681 2.288 1.789 2.645 0.259 0.092 0.557 0.145 0.868 0.145 1.476 0 2.673-1.195 2.676-2.67v-1.334h4v12.041c-0.77-0.657-1.648-1.223-2.596-1.661l-0.070-0.029v-2.351h-25.333v17.333z"></path>
</svg>
