<!-- Generated by IcoMoon.io -->
<svg version="1.1" xmlns="http://www.w3.org/2000/svg" width="32" height="32" viewBox="0 0 32 32">
<title>categories-chemistry</title>
<path fill="#417505" d="M23.295 19.64v-16.36h1.779c0.915 0 1.655-0.733 1.655-1.64s-0.74-1.64-1.653-1.64h-18.149c-0.915 0-1.655 0.733-1.655 1.64s0.74 1.64 1.653 1.64h1.783v16.36l-5.067 11.147h8.724c0.307-0.545 0.689-1.051 1.147-1.504 1.231-1.224 2.928-1.981 4.801-1.981 0.008 0 0.017 0 0.025 0h-0.001c1.823 0 3.536 0.703 4.825 1.981 0.456 0.453 0.84 0.96 1.147 1.504h4.051l-5.064-11.147z"></path>
</svg>
