<!-- Generated by IcoMoon.io -->
<svg version="1.1" xmlns="http://www.w3.org/2000/svg" width="32" height="32" viewBox="0 0 32 32">
<title>categories-math</title>
<path fill="#4a90e2" d="M3.667 0c-2.025 0-3.667 1.642-3.667 3.667v0 11.667h15.333v-15.333h-11.667zM9.667 9h-1.333v1.333c-0.016 0.54-0.458 0.971-1 0.971s-0.984-0.431-1-0.97l-0-0.002v-1.334h-1.333c-0.535-0.023-0.959-0.462-0.959-1s0.425-0.977 0.957-1l0.002-0h1.332v-1.334c0.016-0.54 0.458-0.971 1-0.971s0.984 0.431 1 0.97l0 0.002v1.333h1.333c0.553 0 1 0.448 1 1s-0.448 1-1 1v0zM0 16.666v11.667c0 0 0 0.001 0 0.001 0 2.025 1.642 3.667 3.667 3.667h11.667v-15.333h-15.333zM10.040 25.293c0.16 0.177 0.259 0.413 0.259 0.671 0 0.553-0.448 1-1 1-0.259 0-0.495-0.098-0.672-0.259l0.001 0.001-0.96-0.96-0.96 0.96c-0.181 0.181-0.431 0.293-0.707 0.293s-0.526-0.112-0.707-0.293l-0-0c-0.181-0.181-0.293-0.431-0.293-0.707s0.112-0.526 0.293-0.707l0.96-0.96-0.96-0.96c-0.185-0.182-0.3-0.435-0.3-0.715 0-0.553 0.448-1 1-1 0.28 0 0.533 0.115 0.714 0.3l0.96 0.96 0.96-0.96c0.182-0.185 0.435-0.3 0.714-0.3 0.553 0 1 0.448 1 1 0 0.28-0.115 0.533-0.3 0.714l-0.96 0.96 0.957 0.962zM16.668 0h11.667c2.025 0 3.666 1.642 3.666 3.667v11.667h-15.333v-15.333zM21.667 8.667h6c0.54-0.016 0.971-0.458 0.971-1s-0.431-0.984-0.97-1l-0.002-0h-6c-0.54 0.016-0.971 0.458-0.971 1s0.431 0.984 0.97 1l0.002 0zM16.667 32h11.667c2.025 0 3.667-1.642 3.667-3.667v-11.667h-15.333v15.333zM21.333 27.333l-0.002-0c-0.538-0.016-0.97-0.458-0.97-1s0.431-0.984 0.971-1l6.002 0c0.538 0.016 0.97 0.458 0.97 1s-0.431 0.984-0.971 1h-6zM27.333 23.333h-6c-0.54-0.016-0.971-0.458-0.971-1s0.431-0.984 0.97-1l0.002-0h6c0.54 0.016 0.971 0.458 0.971 1s-0.431 0.984-0.97 1l-0.002 0z"></path>
</svg>
