<!-- Generated by IcoMoon.io -->
<svg version="1.1" xmlns="http://www.w3.org/2000/svg" width="32" height="32" viewBox="0 0 32 32">
<title>categories-informatics</title>
<path fill="#ff7988" d="M32 2.824v4.705h-32v-4.705c0-0.001 0-0.002 0-0.003 0-1.555 1.258-2.816 2.812-2.821h26.375c1.554 0.005 2.813 1.266 2.813 2.821 0 0.001 0 0.002 0 0.003v-0zM27.251 3.764h-5.625c-0.518 0-0.938 0.421-0.938 0.941s0.42 0.941 0.938 0.941h5.625c0.517 0 0.937-0.421 0.937-0.941s-0.42-0.941-0.938-0.941zM12.25 3.764c-0.518 0-0.937 0.421-0.937 0.941s0.419 0.941 0.937 0.941 0.937-0.422 0.937-0.941c0-0.52-0.419-0.941-0.937-0.941zM9.437 4.705c0-0.52-0.419-0.941-0.937-0.941s-0.938 0.421-0.938 0.941 0.42 0.941 0.938 0.941c0.518 0 0.937-0.421 0.937-0.941zM4.749 3.765c-0.518 0-0.938 0.421-0.938 0.941s0.42 0.941 0.938 0.941 0.938-0.422 0.938-0.941c0-0.52-0.42-0.941-0.937-0.941zM0 9.412v19.764c0 0.001 0 0.002 0 0.003 0 1.555 1.258 2.816 2.812 2.821h26.375c1.554-0.005 2.813-1.266 2.813-2.821 0-0.001 0-0.002 0-0.003v0-19.764h-32zM10.961 22.794c0.216 0.174 0.352 0.439 0.352 0.735 0 0.223-0.078 0.428-0.207 0.59l0.001-0.002c-0.173 0.216-0.436 0.354-0.732 0.354-0.223 0-0.427-0.078-0.588-0.208l0.002 0.001-4.688-3.764c-0.216-0.174-0.352-0.439-0.352-0.735s0.137-0.561 0.351-0.734l0.002-0.001 4.688-3.764c0.159-0.129 0.363-0.207 0.586-0.207 0.296 0 0.559 0.137 0.73 0.351l0.001 0.002c0.128 0.16 0.205 0.364 0.205 0.587 0 0.296-0.136 0.56-0.35 0.733l-0.002 0.001-3.773 3.031 3.773 3.029zM14.049 26.723c-0.203 0.477-0.755 0.7-1.23 0.494l-0.006-0.002c-0.331-0.146-0.562-0.478-0.562-0.863 0-0.134 0.028-0.261 0.076-0.37l5.628-13.182c0.144-0.332 0.475-0.564 0.859-0.564 0.133 0 0.26 0.028 0.369 0.076l0.006 0.002c0.331 0.146 0.562 0.478 0.562 0.863 0 0.134-0.028 0.261-0.076 0.37l-5.625 13.176zM26.899 20.5l-4.688 3.764c-0.159 0.128-0.363 0.206-0.586 0.206-0.296 0-0.559-0.137-0.731-0.352l-0.001-0.002c-0.128-0.16-0.205-0.364-0.205-0.587 0-0.296 0.137-0.56 0.35-0.733l0.002-0.001 3.773-3.030-3.773-3.030c-0.215-0.174-0.352-0.439-0.352-0.735 0-0.223 0.078-0.428 0.207-0.59l-0.001 0.002c0.173-0.216 0.436-0.354 0.732-0.354 0.223 0 0.427 0.078 0.587 0.208l-0.002-0.001 4.688 3.764c0.216 0.174 0.352 0.439 0.352 0.735s-0.137 0.561-0.351 0.734l-0.002 0.001z"></path>
</svg>
