<!-- Generated by IcoMoon.io -->
<svg version="1.1" xmlns="http://www.w3.org/2000/svg" width="32" height="32" viewBox="0 0 32 32">
<title>categories-physics</title>
<path fill="#f5a623" d="M20.97 4.508c0.025 0.067 0.054 0.131 0.087 0.195-1.937 0.455-3.623 1.042-5.226 1.78l0.169-0.070c-1.433-0.669-3.119-1.256-4.871-1.673l-0.185-0.037c0.024-0.067 0.053-0.133 0.086-0.195 1.352-2.867 3.157-4.507 4.97-4.507s3.618 1.64 4.97 4.508zM22.737 10.399c-1.52-1.157-3.235-2.24-5.042-3.167l-0.194-0.091c1.133-0.481 2.483-0.914 3.878-1.227l0.163-0.031c0.491 1.282 0.906 2.8 1.174 4.369l0.021 0.147zM23.002 5.625c-0.071 0.007-0.141 0.017-0.211 0.031 0.626 1.7 1.109 3.686 1.361 5.744l0.013 0.132c1.281 1.069 2.429 2.201 3.477 3.422l0.032 0.039c0.242-0.328 0.469-0.664 0.68-1 1.687-2.68 2.094-5.093 1.125-6.609-0.977-1.523-3.337-2.164-6.479-1.758zM10.459 5.883c1.381 0.3 2.733 0.721 4.040 1.258-1.228 0.623-2.228 1.202-3.195 1.826l0.14-0.084c-0.871 0.561-1.582 1.061-2.273 1.583l0.093-0.067c0.256-1.54 0.656-3.051 1.195-4.516zM26.894 16c-0.804-0.962-1.634-1.829-2.519-2.637l-0.021-0.019c0.062 0.867 0.093 1.757 0.093 2.656s-0.031 1.781-0.093 2.656c0.905-0.827 1.736-1.694 2.506-2.614l0.034-0.042zM16 17.687c0 0 0 0 0 0 0.932 0 1.688-0.756 1.688-1.688s-0.755-1.687-1.687-1.688h-0c-0 0-0 0-0 0-0.932 0-1.688 0.756-1.688 1.688s0.755 1.687 1.687 1.688h0zM9.013 12.179c2.029-1.651 4.324-3.114 6.778-4.299l0.209-0.091c1.519 0.719 2.789 1.434 4.005 2.227l-0.129-0.079c1.192 0.771 2.207 1.509 3.18 2.296l-0.069-0.054c0.142 1.269 0.213 2.544 0.211 3.821 0 0.014 0 0.031 0 0.048 0 1.329-0.077 2.64-0.225 3.929l0.015-0.157c-0.909 0.744-1.924 1.482-2.979 2.163l-0.132 0.079c-1.087 0.714-2.357 1.43-3.675 2.062l-0.201 0.087c-1.521-0.722-2.791-1.438-4.008-2.229l0.132 0.080c-1.192-0.771-2.206-1.509-3.178-2.296l0.068 0.054c-0.134-1.146-0.211-2.474-0.211-3.82s0.077-2.674 0.226-3.98l-0.015 0.16zM13.063 16c0 1.623 1.316 2.938 2.938 2.938s2.938-1.316 2.938-2.938v0c0-1.623-1.316-2.938-2.938-2.938s-2.938 1.316-2.938 2.938v0zM21.54 26.117c-1.556-0.342-2.906-0.775-4.199-1.317l0.159 0.059c1.227-0.623 2.227-1.202 3.194-1.827l-0.139 0.084c0.871-0.561 1.582-1.060 2.273-1.583l-0.093 0.068c-0.29 1.716-0.705 3.234-1.252 4.688l0.057-0.172zM10.943 27.297c0.032 0.064 0.061 0.129 0.086 0.195 1.353 2.867 3.158 4.508 4.971 4.508s3.618-1.64 4.97-4.508c0.033-0.063 0.062-0.128 0.087-0.195-1.937-0.455-3.623-1.042-5.225-1.78l0.169 0.070c-1.433 0.669-3.119 1.256-4.871 1.674l-0.185 0.037zM24.165 20.469c1.28-1.071 2.427-2.203 3.477-3.422l0.032-0.039c0.242 0.335 0.469 0.664 0.68 1.007 1.687 2.68 2.102 5.087 1.125 6.609s-3.337 2.157-6.479 1.751c-0.035-0.004-0.071-0.010-0.106-0.016s-0.070-0.012-0.105-0.016c0.64-1.765 1.101-3.757 1.375-5.875zM4.325 14.992c1.082-1.258 2.229-2.39 3.463-3.423l0.046-0.037c0.273-2.117 0.735-4.109 1.376-5.875-0.036-0.004-0.072-0.010-0.108-0.016-0.035-0.005-0.069-0.011-0.103-0.015-0.531-0.072-1.146-0.115-1.771-0.117h-0.003c-2.251 0-3.923 0.656-4.705 1.875-0.977 1.523-0.562 3.93 1.126 6.609 0.211 0.336 0.437 0.665 0.68 1zM3.645 18.008c0.251-0.4 0.475-0.726 0.71-1.043l-0.030 0.043c1.074 1.262 2.222 2.393 3.462 3.416l0.046 0.037c0.267 2.189 0.75 4.175 1.436 6.064l-0.060-0.189c-0.070 0.014-0.14 0.025-0.211 0.031-3.141 0.413-5.501-0.227-6.479-1.75-0.969-1.516-0.562-3.93 1.126-6.609zM11.444 23.117c-0.865-0.555-1.575-1.054-2.266-1.578l0.086 0.062c0.289 1.716 0.705 3.234 1.252 4.687l-0.057-0.171c1.558-0.344 2.908-0.777 4.201-1.318l-0.161 0.060c-1.227-0.623-2.227-1.202-3.194-1.827l0.139 0.084zM7.646 18.657c-0.905-0.827-1.736-1.695-2.505-2.615l-0.034-0.042c0.804-0.962 1.634-1.829 2.519-2.637l0.021-0.019c-0.059 0.788-0.093 1.706-0.093 2.633 0 0.008 0 0.017 0 0.025v-0.001c0 0.899 0.031 1.789 0.093 2.656z"></path>
</svg>
