<!-- Generated by IcoMoon.io -->
<svg version="1.1" xmlns="http://www.w3.org/2000/svg" width="32" height="32" viewBox="0 0 32 32">
<title>feature-managing</title>
<path fill="#4a90e2" d="M17.6 0l6.4 6.4v24c0 0.96-0.64 1.6-1.6 1.6h-20.8c-0.96 0-1.6-0.64-1.6-1.6v-28.8c0-0.96 0.64-1.6 1.6-1.6h16zM4.8 4.8c-0.96 0-1.6 0.64-1.6 1.6s0.64 1.6 1.6 1.6h11.2c0.96 0 1.6-0.64 1.6-1.6s-0.64-1.6-1.6-1.6h-11.2zM4.8 27.2h14.4c0.8 0 1.6-0.64 1.6-1.6s-0.64-1.6-1.6-1.6h-14.4c-0.96 0-1.6 0.64-1.6 1.6s0.64 1.6 1.6 1.6zM19.2 20.8c0.8 0 1.6-0.64 1.6-1.6s-0.64-1.6-1.6-1.6h-14.4c-0.96 0-1.6 0.64-1.6 1.6s0.64 1.6 1.6 1.6h14.4zM4.8 14.4h14.4c0.8 0 1.6-0.64 1.6-1.6s-0.64-1.6-1.6-1.6h-14.4c-0.96 0-1.6 0.64-1.6 1.6s0.64 1.6 1.6 1.6zM27.2 25.6h4.8l-2.4 6.4-2.4-6.4zM28 0c-0.48 0-0.8 0.32-0.8 0.8v21.6h4.8v-21.6c0-0.48-0.32-0.8-0.8-0.8h-3.2z"></path>
</svg>
