<!-- Generated by IcoMoon.io -->
<svg version="1.1" xmlns="http://www.w3.org/2000/svg" width="32" height="32" viewBox="0 0 32 32">
<title>feature-course</title>
<path fill="#4a90e2" d="M24.55 5.407l-2.058 2.083c3.641 1.923 6.175 5.767 6.175 10.093 0 6.248-4.909 11.214-11.083 11.214-5.542 0-10.133-4.165-10.925-9.612h-2.533c-0.475 0-0.792-0.32-0.792-0.801v-1.602c0-0.481 0.317-0.801 0.792-0.801h7.916c0.475 0 0.792 0.32 0.792 0.801v1.601c0 0.481-0.317 0.801-0.792 0.801h-2.215c0.791 3.685 3.958 6.408 7.758 6.408 4.433 0 7.917-3.525 7.917-8.010 0-3.525-2.217-6.408-5.383-7.529l-3.325 3.364c-0.317 0.32-0.791 0.32-1.108 0l-0.633-0.641-1.425 1.442c-0.317 0.32-0.792 0.32-1.109 0l-1.108-1.121c-0.317-0.321-0.317-0.961 0-1.282l1.424-1.281-0.475-0.641c-0.147-0.142-0.238-0.341-0.238-0.561s0.091-0.419 0.238-0.56l0-0 7.6-7.849c0.139-0.148 0.336-0.24 0.554-0.24s0.415 0.092 0.554 0.24l0 0 0.633 0.64 1.267-1.441c0.317-0.16 0.95-0.16 1.267 0l1.109 1.121c0.158 0.32 0.158 0.961-0.159 1.121l-1.267 1.442 0.633 0.481c0.147 0.142 0.238 0.341 0.238 0.561s-0.091 0.419-0.238 0.56l-0 0zM17.583 28.796h-9.025c-0.317 0-0.633 0.16-0.633 0.48l-1.267 1.603c-0.317 0.48 0 1.121 0.633 1.121h20.583c0.633 0 0.949-0.641 0.633-1.121l-1.267-1.602c-0.159-0.32-0.475-0.481-0.633-0.481h-9.025z"></path>
</svg>
