<!-- Generated by IcoMoon.io -->
<svg version="1.1" xmlns="http://www.w3.org/2000/svg" width="32" height="32" viewBox="0 0 32 32">
<title>feature-course-management</title>
<path fill="#4a90e2" d="M23.36 14.24c-0.96 2.4-3.040 4.32-5.76 4.64l3.2 6.56h2.4c0.48 0 0.8 0.32 0.8 0.8v4.96c0 0.48-0.32 0.8-0.8 0.8h-14.4c-0.48 0-0.8-0.32-0.8-0.64v-4.96c0-0.48 0.32-0.8 0.8-0.8h2.4l3.2-6.56c-2.56-0.48-4.8-2.4-5.76-4.8-4.96-0.96-8.64-5.28-8.64-10.4 0-1.28 0.96-2.24 2.24-2.24h5.76v-0.8c0-0.48 0.32-0.8 0.8-0.8h14.4c0.48 0 0.8 0.32 0.8 0.8v0.8h5.76c1.28 0 2.24 0.96 2.24 2.24 0 5.12-3.68 9.44-8.64 10.4zM24 4.8h4.8c-0.32 2.72-2.24 4.96-4.8 5.92v-5.92zM3.2 4.8c0.48 2.72 2.24 4.96 4.8 5.92v-5.92h-4.8z"></path>
</svg>
