<!-- Generated by IcoMoon.io -->
<svg version="1.1" xmlns="http://www.w3.org/2000/svg" width="32" height="32" viewBox="0 0 32 32">
<title>instagram</title>
<path fill="#fff" d="M16 0c-4.346 0-4.888 0.020-6.598 0.1-5.812 0.264-9.040 3.488-9.306 9.3-0.078 1.712-0.096 2.256-0.096 6.6 0 4.346 0.020 4.89 0.096 6.598 0.266 5.81 3.494 9.040 9.306 9.306 1.71 0.078 2.252 0.096 6.598 0.096s4.89-0.020 6.6-0.096c5.802-0.266 9.042-3.49 9.304-9.306 0.078-1.708 0.096-2.252 0.096-6.598 0-4.344-0.020-4.888-0.096-6.598-0.26-5.802-3.49-9.040-9.304-9.302-1.71-0.080-2.254-0.1-6.6-0.1zM16 2.886c4.272 0 4.78 0.016 6.466 0.092 4.34 0.198 6.36 2.254 6.56 6.558 0.076 1.688 0.092 2.192 0.092 6.464s-0.016 4.78-0.092 6.464c-0.2 4.3-2.218 6.362-6.56 6.56-1.688 0.074-2.192 0.094-6.466 0.094-4.272 0-4.78-0.016-6.464-0.094-4.346-0.2-6.36-2.264-6.56-6.56-0.074-1.686-0.094-2.192-0.094-6.464s0.020-4.78 0.094-6.464c0.198-4.306 2.22-6.362 6.56-6.56 1.686-0.078 2.192-0.090 6.464-0.090zM7.784 16c0-4.538 3.678-8.216 8.216-8.216s8.216 3.678 8.216 8.216v0c0 4.538-3.678 8.216-8.216 8.216s-8.216-3.678-8.216-8.216v0zM16 21.334c-2.946 0-5.334-2.388-5.334-5.334s2.388-5.334 5.334-5.334v0c0.044-0.001 0.095-0.002 0.146-0.002 2.947 0 5.336 2.389 5.336 5.336s-2.389 5.336-5.336 5.336c-0.051 0-0.103-0.001-0.154-0.002l0.008 0zM22.62 7.462c0-1.060 0.86-1.92 1.92-1.92s1.92 0.86 1.92 1.92v0c0 1.060-0.86 1.92-1.92 1.92s-1.92-0.86-1.92-1.92v0z"></path>
</svg>
