<svg width="22" height="26" fill="none" xmlns="http://www.w3.org/2000/svg"><path d="M11 0C8.084.003 5.288 1.056 3.226 2.926 1.163 4.797.003 7.334 0 9.98c-.003 2.162.775 4.266 2.216 5.988 0 0 .3.358.349.41L11 25.403l8.439-9.03c.044-.048.345-.405.345-.405l.001-.003c1.44-1.721 2.218-3.824 2.215-5.985-.003-2.646-1.163-5.183-3.226-7.054C16.712 1.056 13.916.003 11 0Zm0 13.609a4.297 4.297 0 0 1-2.222-.612 3.73 3.73 0 0 1-1.474-1.628 3.318 3.318 0 0 1-.227-2.097 3.539 3.539 0 0 1 1.095-1.858 4.141 4.141 0 0 1 2.048-.993 4.38 4.38 0 0 1 2.31.206c.732.275 1.356.74 1.796 1.337.44.596.674 1.298.674 2.016-.001.962-.423 1.884-1.173 2.565-.75.68-1.767 1.063-2.827 1.064Z" fill="#D9D9D9"/></svg>