<!-- Generated by IcoMoon.io -->
<svg version="1.1" xmlns="http://www.w3.org/2000/svg" width="32" height="32" viewBox="0 0 32 32">
<title>service-communiti</title>
<path fill="#4a90e2" d="M13.44 2.034c-1.12-0.802-2.4-1.284-3.84-1.284-3.52 0-6.4 2.889-6.4 6.421s2.88 6.421 6.4 6.421h0.48c-0.32-0.963-0.48-2.087-0.48-3.21 0-3.372 1.44-6.421 3.84-8.348zM20.8 18.408c4.418 0 8-3.594 8-8.027s-3.582-8.026-8-8.026-8 3.594-8 8.026c0 4.433 3.582 8.027 8 8.027zM9.6 31.25c0-6.261 4.96-11.237 11.2-11.237s11.2 4.977 11.2 11.237h-22.4zM9.6 15.197h1.12c0.64 1.445 1.6 2.729 2.72 3.692-2.4 1.445-4.32 3.532-5.44 5.939h-8c0-5.297 4.32-9.632 9.6-9.632z"></path>
</svg>
