<!-- Generated by IcoMoon.io -->
<svg version="1.1" xmlns="http://www.w3.org/2000/svg" width="32" height="32" viewBox="0 0 32 32">
<title>service-svhedules</title>
<path fill="#4a90e2" d="M28.8 4.8h1.6c0.96 0 1.6 0.8 1.6 1.6v24c0 0.8-0.64 1.6-1.6 1.6h-28.8c-0.96 0-1.6-0.8-1.6-1.6v-24c0-0.8 0.8-1.6 1.6-1.6h3.2v-2.4c0-1.28 1.12-2.4 2.4-2.4s2.4 1.12 2.4 2.4v2.4h14.4v-2.4c0-1.28 1.12-2.4 2.4-2.4s2.4 1.12 2.4 2.4v2.4zM3.2 28.8h6.4v-6.4h-6.4v6.4zM9.6 19.2v-6.4h-6.4v6.4h6.4zM12.8 28.8h6.4v-6.4h-6.4v6.4zM19.2 19.2v-6.4h-6.4v6.4h6.4zM22.4 19.2h6.4v-6.4h-6.4v6.4z"></path>
</svg>
