<!-- Generated by IcoMoon.io -->
<svg version="1.1" xmlns="http://www.w3.org/2000/svg" width="32" height="32" viewBox="0 0 32 32">
<title>service--learning</title>
<path fill="#4a90e2" d="M30.249 20.913h0.796c0.477 0 0.796 0.319 0.955 0.798v1.596c0 0.479-0.319 0.798-0.796 0.798h-6.050l1.91 5.907c0.16 0.799-0.318 1.596-1.114 1.916-0.955 0.319-1.752-0.479-1.91-1.117l-2.229-6.865h-11.622l-2.229 6.865c-0.159 0.798-1.115 1.277-1.91 1.117s-1.433-1.117-1.115-1.916l1.911-5.907h-6.050c-0.477 0-0.796-0.319-0.796-0.798v-1.597c0-0.479 0.319-0.798 0.796-0.798h0.796v-17.72c0-0.798 0.796-1.437 1.592-1.437h10.985l0.159-0.639c0.319-0.798 0.796-1.117 1.591-1.117s1.432 0.479 1.592 1.117l0.159 0.639h10.985c0.796 0 1.592 0.639 1.592 1.437v17.72zM20.697 20.913h6.368v-3.193h-6.368v3.193z"></path>
</svg>
