<!-- Generated by IcoMoon.io -->
<svg version="1.1" xmlns="http://www.w3.org/2000/svg" width="160" height="32" viewBox="0 0 160 32">
<title>stars</title>
<path fill="#f8e71c" d="M16 24l-9.405 4.944 1.796-10.472-7.608-7.416 10.515-1.528 4.702-9.528 4.702 9.528 10.515 1.528-7.608 7.416 1.796 10.472-9.405-4.944z"></path>
<path fill="#f8e71c" d="M48 24l-9.405 4.944 1.796-10.472-7.608-7.416 10.515-1.528 4.702-9.528 4.702 9.528 10.515 1.528-7.608 7.416 1.796 10.472-9.405-4.944z"></path>
<path fill="#f8e71c" d="M80 24l-9.405 4.944 1.796-10.472-7.608-7.416 10.515-1.528 4.702-9.528 4.702 9.528 10.515 1.528-7.608 7.416 1.796 10.472-9.405-4.944z"></path>
<path fill="#f8e71c" d="M112 24l-9.405 4.944 1.797-10.472-7.609-7.416 10.515-1.528 4.702-9.528 4.702 9.528 10.515 1.528-7.609 7.416 1.797 10.472-9.405-4.944z"></path>
<path fill="#f8e71c" d="M144 24l-9.405 4.944 1.797-10.472-7.609-7.416 10.515-1.528 4.702-9.528 4.702 9.528 10.515 1.528-7.609 7.416 1.797 10.472-9.405-4.944z"></path>
</svg>
