<svg aria-hidden="true" style="position: absolute; width: 0; height: 0; overflow: hidden;" version="1.1" xmlns="http://www.w3.org/2000/svg" xmlns:xlink="http://www.w3.org/1999/xlink">
<defs>
<symbol id="icon-stars" viewBox="0 0 160 32">
<path fill="#f8e71c" style="fill: var(--color1, #f8e71c)" d="M16 24l-9.405 4.944 1.796-10.472-7.608-7.416 10.515-1.528 4.702-9.528 4.702 9.528 10.515 1.528-7.608 7.416 1.796 10.472-9.405-4.944z"></path>
<path fill="#f8e71c" style="fill: var(--color1, #f8e71c)" d="M48 24l-9.405 4.944 1.796-10.472-7.608-7.416 10.515-1.528 4.702-9.528 4.702 9.528 10.515 1.528-7.608 7.416 1.796 10.472-9.405-4.944z"></path>
<path fill="#f8e71c" style="fill: var(--color1, #f8e71c)" d="M80 24l-9.405 4.944 1.796-10.472-7.608-7.416 10.515-1.528 4.702-9.528 4.702 9.528 10.515 1.528-7.608 7.416 1.796 10.472-9.405-4.944z"></path>
<path fill="#f8e71c" style="fill: var(--color1, #f8e71c)" d="M112 24l-9.405 4.944 1.797-10.472-7.609-7.416 10.515-1.528 4.702-9.528 4.702 9.528 10.515 1.528-7.609 7.416 1.797 10.472-9.405-4.944z"></path>
<path fill="#f8e71c" style="fill: var(--color1, #f8e71c)" d="M144 24l-9.405 4.944 1.797-10.472-7.609-7.416 10.515-1.528 4.702-9.528 4.702 9.528 10.515 1.528-7.609 7.416 1.797 10.472-9.405-4.944z"></path>
</symbol>
</defs>
</svg>
