<svg width="25" height="26" fill="none" xmlns="http://www.w3.org/2000/svg"><path d="m24.287 17.95-5.469-2.38a1.155 1.155 0 0 0-1.367.342l-2.422 3.006a18.248 18.248 0 0 1-8.652-8.791l2.96-2.461a1.206 1.206 0 0 0 .337-1.39L7.328.72A1.191 1.191 0 0 0 6.78.13a1.163 1.163 0 0 0-.794-.1L.908 1.222a1.17 1.17 0 0 0-.653.419C.09 1.85 0 2.112 0 2.38c0 12.727 10.152 23.022 22.657 23.022.265 0 .522-.09.73-.258.207-.168.353-.402.412-.665l1.172-5.16c.06-.273.025-.56-.1-.81a1.194 1.194 0 0 0-.584-.56Z" fill="#D9D9D9"/></svg>