<!-- Generated by IcoMoon.io -->
<svg version="1.1" xmlns="http://www.w3.org/2000/svg" width="32" height="32" viewBox="0 0 32 32">
<title>twitter</title>
<path fill="#fff" d="M32 5.080c-1.098 0.5-2.371 0.864-3.706 1.028l-0.064 0.006c1.357-0.823 2.378-2.085 2.875-3.585l0.013-0.047c-1.201 0.725-2.599 1.277-4.088 1.578l-0.084 0.014c-1.201-1.272-2.899-2.064-4.782-2.064-3.63 0-6.572 2.942-6.572 6.572 0 0.524 0.061 1.034 0.177 1.523l-0.009-0.045c-5.468-0.283-10.277-2.88-13.504-6.823l-0.026-0.033c-0.558 0.946-0.888 2.085-0.888 3.3 0 2.268 1.148 4.267 2.895 5.449l0.023 0.015c-1.096-0.036-2.115-0.335-3.005-0.837l0.033 0.017c-0.068 3.038 2.112 5.882 5.272 6.518-0.516 0.145-1.109 0.229-1.721 0.229-0.441 0-0.871-0.043-1.287-0.126l0.042 0.007c0.865 2.628 3.274 4.503 6.128 4.558l0.006 0c-2.223 1.757-5.065 2.818-8.156 2.818-0.554 0-1.1-0.034-1.636-0.1l0.064 0.006c2.838 1.85 6.312 2.95 10.042 2.95 0.006 0 0.012 0 0.019 0h-0.001c12.194 0 19.080-10.296 18.662-19.53 1.292-0.938 2.38-2.064 3.248-3.351l0.030-0.047z"></path>
</svg>
